<?xml version="1.0" encoding="utf-8"?>
<!-- Generator: Adobe Illustrator 24.3.0, SVG Export Plug-In . SVG Version: 6.00 Build 0)  -->
<svg version="1.1" xmlns="http://www.w3.org/2000/svg" xmlns:xlink="http://www.w3.org/1999/xlink" x="0px" y="0px"
	 viewBox="0 0 4000 4000" style="enable-background:new 0 0 4000 4000;" xml:space="preserve">
<style type="text/css">
	.st0{fill:#010504;}
	.st1{fill:#FFFFFF;}
	.st2{fill:#FFFFFF;stroke:#010504;stroke-width:8;stroke-linecap:round;stroke-linejoin:round;stroke-miterlimit:10;}
	.st3{fill:none;stroke:#000000;stroke-width:8;stroke-linecap:round;stroke-linejoin:round;stroke-miterlimit:10;}
	.st4{fill:none;stroke:#010504;stroke-width:8;stroke-linecap:round;stroke-linejoin:round;stroke-miterlimit:10;}
	.st5{stroke:#010504;stroke-width:8;stroke-linecap:round;stroke-linejoin:round;stroke-miterlimit:10;}
	.st6{fill:#FFB001;}
	.st7{fill:#FBB205;}
	.st8{fill:#B686FE;}
	.st9{fill:#CBCACA;}
</style>
<g id="BACKGROUND__x28_locked_x29_">
</g>
<g id="OBJECTS">
	<path class="st0" d="M2477.6,813.3c-42.2-95-139-154.2-236.8-189.6c-359-130-781.7-34-1046,241.6
		c-46.8,48.8-91.3,139.4-108.8,204.6c-10,37-11.5,77-29.8,110.7c-40.4,74.1-141,86.7-207.4,138.9c-80.5,63.2-101,180.3-78.9,280.2
		c12.1,54.7,34.1,115.3,5.5,163.4c-20,33.7-59.5,50.2-86.8,78.3c-51.2,52.6-48.3,147.9,6,197.3c27.2,24.8,63,37.5,94.6,56.4
		c31.6,18.9,61.3,48.8,61.8,85.7c1.1,83.7-132,102.1-161.3,180.5c-25.5,68.1,39.5,133.7,97.6,177.6c41.5-36.6,83-73.2,124.5-109.7
		c14.6,33.7-1.2,150.4-1.2,150.4s15.2,23.6,30.9,38.2c43.1,40.1,92.9,73.2,146.7,97.3c35.3,15.8,40.4,21,60.4-12.9
		c18.2-30.7,36.5-61.4,55.1-91.9c-5,33.8,29,189.8,29,189.8s18.4,14.2,29.8,16.9c91,21.6,185.9,16.1,279.2,10.5
		c175.6-10.5,351.2-21.1,526.9-31.6c94.8-5.7,183,4.3,278,4.7c142,0.6,303-7,395.9-114.4c2.2-23.7,4.4-47.4,6.5-71
		c13.8,7.1,27.6,14.2,41.4,21.3c93.9-54.2,303.3-203.6,299.6-214.1c-18.2-51.1-36.5-102.2-54.7-153.2
		c40.2,35.9,80.4,71.9,120.6,107.8c69.3-54.7,138.6-109.4,207.9-164c11.1-61.9-41.6-129.1-104.3-133.9c-21-1.6-46.3,1-59-15.8
		c-15.4-20.4,2.1-48.3,15.1-70.3c19.3-32.7,28.9-72.3,20.3-109.3c-8.6-37-37.5-70.1-74.6-77.9c-25-5.3-51,0.8-76.5-1.1
		c-25.5-1.9-54-16.3-57.1-41.7c-2-16.3,7.1-31.6,15.4-45.8c24.5-41.7,45.5-86.5,51.1-134.5c5.6-48-6.2-99.8-40-134.4
		c-29.2-29.9-71.6-43.9-113.3-46.7c-13-0.9-27.7-1.6-36-11.6c-6-7.2-6.8-17.4-6.6-26.8c2-72,55.8-301.8-170-485.6
		C2670.6,830.5,2541.1,778.6,2477.6,813.3z"/>
	<path class="st1" d="M2995.7,2534.4c-0.9,0-1.6-0.7-1.6-1.6c-0.7-40.1-3.6-81.7-29.5-110.6c-18-20.1-44.3-30.2-69.7-40
		c-3.7-1.4-7.3-2.8-10.9-4.2c-40.8-16.2-70.8-34-94.1-55.9c-52.4-49.2-75.1-130-56.7-200.9c7.1-27.3,19.7-53,31.9-78
		c9.5-19.4,19.3-39.4,26.4-60c14.7-42.4,17.9-103.8-21.2-137.5c-18.3-15.7-42.5-22.3-65.9-28.7c-22.2-6.1-45.2-12.3-63.6-26.3
		c-28.2-21.5-43.6-60.3-41.2-103.8c2.1-38.8,16.7-75.2,30.8-110.5c0.3-0.8,1.3-1.2,2.1-0.9c0.8,0.3,1.2,1.3,0.9,2.1
		c-14,35-28.5,71.2-30.6,109.4c-2.3,42.4,12.6,80.2,40,101c17.9,13.6,40.6,19.8,62.5,25.8c23.8,6.5,48.3,13.2,67.1,29.4
		c40.3,34.8,37.1,97.7,22.1,141c-7.2,20.8-17,40.9-26.6,60.3c-12.1,24.8-24.6,50.4-31.7,77.4c-18.2,69.8,4.3,149.3,55.8,197.7
		c23,21.7,52.6,39.2,93.1,55.3c3.6,1.4,7.2,2.8,10.9,4.2c25.8,9.9,52.4,20.2,70.9,40.9c26.6,29.7,29.6,73.8,30.4,112.7
		C2997.3,2533.6,2996.6,2534.4,2995.7,2534.4C2995.7,2534.4,2995.7,2534.4,2995.7,2534.4z"/>
	<path class="st1" d="M2707.7,2755.1c-0.5,0-0.9-0.2-1.2-0.6c-23.9-28.2-23.8-66.9-23.6-104.4c0.1-35.1,0.3-71.3-19.2-98.9
		c-11.4-16.1-28.3-27.5-44.7-38.4c-8.2-5.5-16.7-11.1-24.4-17.3c-33.4-26.8-55.6-66.5-61.1-108.9c-5.2-40.4,4.6-80.9,14-120.1
		c2.1-8.9,4.3-18,6.3-27c8.8-40,17.4-98.3-10.1-143.5c-8.9-14.7-21.4-27.3-33.4-39.6c-14.9-15.2-30.3-30.9-39.2-50.6
		c-10.9-24.1-11.1-50.5-10.2-80.1c1.4-48,4.6-94.4,27.6-133.5c0.5-0.8,1.4-1,2.2-0.6c0.8,0.5,1,1.4,0.6,2.2
		c-22.7,38.5-25.8,84.4-27.2,132c-0.8,29.1-0.7,55.2,9.9,78.6c8.7,19.2,23.9,34.7,38.6,49.7c12.1,12.4,24.7,25.2,33.8,40.2
		c28.1,46.2,19.5,105.4,10.5,145.9c-2,9-4.2,18.2-6.3,27c-9.4,38.9-19.1,79.2-13.9,119c5.3,41.6,27.2,80.5,59.9,106.8
		c7.6,6.1,16.1,11.7,24.2,17.2c16.6,11.1,33.9,22.6,45.6,39.2c20,28.5,19.9,65.2,19.8,100.8c-0.1,38.6-0.3,75,22.9,102.3
		c0.6,0.7,0.5,1.7-0.2,2.3C2708.4,2755,2708.1,2755.1,2707.7,2755.1z"/>
	<path class="st1" d="M2464.6,2786.8c-0.4,0-0.9-0.2-1.2-0.5c-25.3-27.8-38.5-65.2-36.4-102.7c1.3-22.6,8-44.6,14.6-65.8
		c4.7-15.2,9.5-30.9,12.3-46.7c10.9-62.2-11.7-130.3-57.7-173.6c-16.7-15.7-36.3-28.5-55.3-40.8c-12.4-8.1-25.1-16.4-37.1-25.5
		c-26.1-19.9-57.8-52.5-60.2-94.2c-1.5-26.8,9.4-52.1,19.9-76.6c3.2-7.4,6.5-15.1,9.4-22.7c24-62.9,23.4-134.8-1.8-197.3
		c-0.3-0.8,0.1-1.8,0.9-2.1c0.8-0.3,1.8,0.1,2.1,0.9c25.4,63.2,26.1,136,1.8,199.7c-2.9,7.6-6.2,15.3-9.5,22.8
		c-10.4,24.1-21.2,49.1-19.7,75.1c2.3,40.5,33.3,72.3,58.9,91.8c11.8,9,24.6,17.3,36.9,25.3c19.1,12.4,38.8,25.3,55.7,41.2
		c46.7,44,69.7,113.3,58.6,176.5c-2.8,16-7.7,31.8-12.4,47.1c-6.5,21.1-13.2,42.9-14.4,65.1c-2.1,36.6,10.9,73.2,35.6,100.4
		c0.6,0.7,0.5,1.7-0.1,2.3C2465.4,2786.7,2465,2786.8,2464.6,2786.8z"/>
	<path class="st1" d="M2279.5,2637C2279.5,2637,2279.5,2637,2279.5,2637c-0.9,0-1.6-0.7-1.6-1.6c0.3-54.2-16.7-108.6-47.7-153
		c-8.5-12.2-18.3-24-27.8-35.4c-18.2-21.9-37-44.5-47.8-71.3c-21.8-53.8-8.1-112.9,5.2-170c12.7-54.8,25.8-111.5,7.7-163.4
		c-0.3-0.8,0.1-1.8,1-2c0.8-0.3,1.8,0.1,2,1c18.4,52.8,5.2,109.9-7.6,165.2c-13.1,56.7-26.7,115.3-5.3,168.1
		c10.7,26.3,29.3,48.8,47.3,70.4c9.5,11.4,19.3,23.3,28,35.6c31.4,45,48.6,100,48.3,154.9C2281.1,2636.3,2280.4,2637,2279.5,2637z"
		/>
	<path class="st1" d="M1136.4,2761.7c-0.6,0-1.2-0.4-1.5-1c-22.3-53.8-66.3-189.1,6.6-283.7c23-29.9,54.9-51.4,85.8-72.3
		c16-10.8,32.6-22,47.8-34.3c64.9-52.4,119.6-150.3,86.4-241.5c-7.2-19.7-18.3-38.6-29.1-56.8c-17.9-30.3-36.3-61.6-36.5-97
		c-0.3-41.8,24.6-77.5,48.6-112.1c6.4-9.3,13.1-18.9,19.1-28.3c23.7-37.4,40.4-80.2,48.4-123.8c0.2-0.9,1-1.4,1.9-1.3
		c0.9,0.2,1.4,1,1.3,1.9c-8.1,44-24.9,87.1-48.8,124.9c-6,9.5-12.7,19.1-19.2,28.4c-23.7,34.2-48.2,69.5-48,110.3
		c0.2,34.6,17.6,64.1,36.1,95.4c10.8,18.4,22,37.4,29.3,57.4c33.7,92.7-21.7,192-87.4,245.1c-15.3,12.3-31.9,23.6-48,34.4
		c-30.6,20.7-62.3,42.1-85.1,71.6c-71.9,93.3-28.2,227.3-6.2,280.5c0.3,0.8,0,1.8-0.9,2.1
		C1136.8,2761.7,1136.6,2761.7,1136.4,2761.7z"/>
	<path class="st1" d="M1328.6,2864.5c-0.8,0-1.5-0.6-1.6-1.4c-5-31.9-7.8-68.4,8.6-97.7c15.4-27.4,44.1-43.1,71.9-58.2
		c27.8-15.2,56.5-30.9,71.1-58.2c14.2-26.6,13.7-61.6-1.5-107.1c-2.4-7.1-5-14.4-7.5-21.4c-10-27.9-20.4-56.7-19.9-86.7
		c1-55.8,38.1-100.5,74-143.8c31.3-37.7,63.7-76.8,73.1-123.5c6.3-31.3,1.8-64-2.6-95.7c-4.9-35.4-10-71.9,0-106.5
		c0.2-0.8,1.1-1.3,2-1.1c0.9,0.2,1.3,1.1,1.1,2c-9.8,33.9-4.8,70.2,0.1,105.2c4.4,32,9,65,2.6,96.8c-9.6,47.6-42.2,86.9-73.8,124.9
		c-37.2,44.8-72.3,87.1-73.3,141.8c-0.5,29.4,9.8,57.9,19.7,85.5c2.5,7,5.1,14.3,7.5,21.5c15.5,46.4,15.9,82.3,1.3,109.7
		c-15.1,28.1-44.2,44.1-72.4,59.5c-27.4,15-55.7,30.4-70.6,57c-15.9,28.4-13.4,62.7-8.2,95.6c0.1,0.9-0.5,1.7-1.3,1.8
		C1328.8,2864.5,1328.7,2864.5,1328.6,2864.5z"/>
	<path class="st1" d="M1690.9,2662.2c-0.1,0-0.2,0-0.4,0c-0.9-0.2-1.4-1.1-1.2-1.9c5.1-22.6-3-45.5-10.8-67.7
		c-3-8.5-6.1-17.3-8.4-26c-23.5-88,29-174.9,91.6-221.9c6.1-4.6,12.5-9.1,18.7-13.4c17.5-12.2,35.6-24.8,48.7-41.7
		c26.7-34.4,32-86.7,14.5-143.3c-7.9-25.7-19.4-50.6-30.5-74.6c-9.7-21-19.7-42.8-27.3-65c-0.3-0.8,0.2-1.8,1-2c0.8-0.3,1.7,0.2,2,1
		c7.6,22.1,17.6,43.8,27.2,64.7c11.1,24.2,22.6,49.2,30.6,75c17.8,57.6,12.3,110.9-15,146.2c-13.4,17.3-31.7,30.1-49.4,42.4
		c-6.2,4.3-12.6,8.7-18.6,13.3c-72.9,54.9-110.1,144.7-90.4,218.5c2.3,8.6,5.4,17.3,8.3,25.8c7.9,22.6,16.1,45.9,10.9,69.4
		C1692.2,2661.7,1691.6,2662.2,1690.9,2662.2z"/>
	<path class="st1" d="M2569,1268.6c-1.5,0-3-0.2-4.5-0.6c-6.8-2-11.5-8.3-11.5-15.4c0-9.1,1.1-90.5,38.2-130.5
		c3-3.2,7.3-5.1,11.7-5.1c2,0,4,0.4,5.9,1.1c1.8,0.7,3.4,1.7,4.8,3c3.9,2.8,26,16.9,50.4,32.3c4.4,2.8,7.2,7.5,7.5,12.7
		c0.3,5.2-2,10.2-6.1,13.4c-0.6,0.5-61.8,48.9-82.9,81.7C2579.5,1265.9,2574.5,1268.6,2569,1268.6z"/>
	<path class="st1" d="M2557.1,1268.6c-4.1,0-8-1.6-11-4.4c-5.5-5.2-54.1-52.6-55-100.3c-0.1-4.3,1.6-8.5,4.6-11.5
		c2.7-2.8,6.3-4.4,10.1-4.7c2.2-0.3,20.2-2.7,42.4-5.8c0.7-0.1,1.5-0.2,2.2-0.2c4.2,0,8.1,1.6,11.2,4.5c3.6,3.5,5.3,8.3,4.7,13.3
		c-0.1,0.5-6.1,56.9,5.8,87.4c2.7,7,0.3,14.9-6,19.1C2563.4,1267.7,2560.3,1268.6,2557.1,1268.6z"/>
	<path class="st1" d="M2679.2,1288.1c-2.5,0-5-0.6-7.2-1.7c-0.2-0.1-26-12.7-61-12.7c-10,0-19.8,1-29.3,3c-1.1,0.2-2.2,0.3-3.3,0.3
		c-5.4,0-10.4-2.7-13.4-7.2c-3.6-5.6-3.5-12.6,0.3-18c1.4-2,35.8-49.2,106.8-49.2c1,0,2,0,3,0c0.1,0,0.6,0,0.8,0
		c6.1,0,13.6,3.5,15.6,13.2c0.2,0.7,0.3,1.4,0.3,2.1c0.1,0.6,0.1,1.3,0.2,1.8c0.1,1.6,0.2,3.7,0.4,6.2c0.3,5,0.7,11.7,1.2,18.4
		c0.8,13.4,1.7,26.7,1.7,26.7c0.4,5.7-2.4,11.2-7.2,14.4C2685.4,1287.2,2682.4,1288.1,2679.2,1288.1z"/>
	<g>
		<path class="st2" d="M2726.8,1527.3c24.6-10.1,55.2-9.4,75.4,7.9c11,9.5,17.9,22.9,22.8,36.6c19.8,55.3,9.1,120.4-27.3,166.5
			c-18.4,23.3-43.3,42-71.9,49.8c-28.6,7.9-60.8,4.1-85.1-12.9c-11.4-8-21.1-19.1-25.6-32.3c-3.4-9.9-3.7-20.7-3.3-31.1
			C2615,1645.2,2661.8,1554.1,2726.8,1527.3z"/>
		<path class="st3" d="M2788.7,1596.4c-4.5-8.6-17.1-7.2-26.2-3.9c-40,14.7-74.6,43.6-96.1,80.4c15-7,26.4-4.1,42.9-5.1
			c12.1-0.8,25.6,0.7,33.7,9.7"/>
	</g>
	<g>
		<path class="st2" d="M1224.7,1527.3c-24.6-10.1-55.2-9.4-75.4,7.9c-11,9.5-17.9,22.9-22.8,36.6c-19.8,55.3-9.1,120.4,27.3,166.5
			c18.4,23.3,43.3,42,71.9,49.8c28.6,7.9,60.8,4.1,85.1-12.9c11.4-8,21.1-19.1,25.6-32.3c3.4-9.9,3.7-20.7,3.3-31.1
			C1336.5,1645.2,1289.7,1554.1,1224.7,1527.3z"/>
		<path class="st3" d="M1162.9,1596.4c4.5-8.6,17.1-7.2,26.2-3.9c40,14.7,74.6,43.6,96.1,80.4c-15-7-26.4-4.1-42.9-5.1
			c-12.1-0.8-25.6,0.7-33.7,9.7"/>
	</g>
	<path class="st2" d="M1283.2,1692.3c0,0,93.9,493.8,746.7,473.3c-4.1,4.1,555-20.4,652.9-510.1c-4.1-4.1,318.3-934.5-699.8-848.8
		c2,0-136.7-5.6-136.7-5.6S1005.8,819.1,1283.2,1692.3z"/>
	<path class="st0" d="M2924.6,1745.9c-22.9-10.1-41.1-30.3-48.6-54.2c-7.7-24.6-4.4-51-4.8-76.8c-0.4-25.8-6-54-26.2-70
		c-16.4-13-38.6-15-59.4-16.6c-42.9-3.2-78.6-4-113.4-32.8c-28.5-23.6-48.6-58-52.1-95.1c-3.9-40.6,9.8-80.5,17.8-120.5
		c12.5-62,11.3-126.7-3.5-188.2c-7-29.3-17.5-58.6-37.3-81.2c-46.5-53-115.6-54.4-157.5,2.3c-3.5-71.2-32.2-136.5-35.7-207.8
		c21.8,33.8,64.1,48.2,103.9,53.9c39.9,5.7,81.3,5.2,118.8,19.7c79.4,30.6,120.1,117.7,144.6,199.1c12.7,42.1,23.1,85,27.6,128.7
		c4.8,47.7,2.6,97.1,19.4,142c21.6,57.9,71.3,99.7,113.2,145.2c41.9,45.4,79.4,104.7,67.3,165.3c-8.7,43.6-44.8,80.6-88.3,90.2
		C2920.4,1745.4,2914.7,1749.7,2924.6,1745.9z"/>
	<path class="st0" d="M2413.4,1002.4c-5.4-48.8-21.2-90.2-64.1-114.1c-44.9-24.9-104.1-4.7-139,33c-34.9,37.7-50.9,88.7-65.1,138
		c-14.2,49.4-28.3,100.5-60.5,140.5c-53.9,66.9-157.3,87.5-232.8,46.5c-42.7-23.2-74.9-62.3-117.5-85.6
		c-93.5-51.2-227-2.1-264.9,97.5c-20.6,54.1-20.3,123.7-68.9,155.2c-37,24-85.3,13.6-129,7.4c-71.2-10.1-157.7,1.7-191.1,65.3
		c-38.3,73-35.5,152.8-55.7,232.7c-51.3-52.6-62.8-92.8-89.1-161.4c-26.3-68.6-24.7-152.2,21.3-209.6c35-43.5,89.5-66,131.4-102.9
		c81.5-71.9,105.2-187.6,159.4-281.8c101.2-175.9,310-269.5,512.8-278c62.2-2.6,124.5,1.7,186.6,6c67.1,4.6,134.2,9.3,201.4,13.9
		c33.1,2.3,66.7,4.7,97.9,15.9c36.6,13.2,68,37.7,103.1,54.6c17.4,8.3,35.9,14.9,51,26.9c28.4,22.5,40.2,61,39,97.2
		c-0.8,24.3,0.1,113.4,0.1,113.4S2429.2,1006.9,2413.4,1002.4z"/>
	<path class="st4" d="M1921.9,1696.4c0,0,5.5-49,55.8-28.6"/>
	<g>
		<path class="st0" d="M1633.6,1459.6c32.9,1.3,64.5,18,86.5,42.5c5.6,6.3,10.8,13.4,12.6,21.6c1.8,8.2-0.4,17.8-7.1,22.8
			c-11.4,8.5-27.2,0.5-40-5.7c-25.7-12.4-55.1-16.9-83.3-12.6c-37.3,5.6-70.7,25.7-106.4,38c-10.2,3.5-23.5,5.5-30-3.1
			c-3.4-4.5-3.7-10.8-2.3-16.3c3.5-14.7,16.3-25.3,28.9-33.6C1492.5,1513.1,1558.1,1456.7,1633.6,1459.6z"/>
		<path class="st4" d="M1423.4,1459.6c1.5,18.9,10.9,37,25.3,49.1c14.5,12.2,33.9,18.3,52.7,16.6"/>
		<path class="st4" d="M1499.5,1422.1c0,54.4,43.6,73,53,73.3"/>
		<path class="st4" d="M1560.8,1421.5c-1.6,14.4,1.5,29.3,8.7,41.8c4.3,7.4,10.6,14.4,19,16.1"/>
		<path class="st4" d="M1477,1337.8c0,0,75.5-73.5,161.2-20.9"/>
	</g>
	<g>
		<path class="st0" d="M2311.4,1447.5c-32.9,1.3-64.5,18-86.5,42.5c-5.6,6.3-10.8,13.4-12.6,21.6s0.4,17.8,7.1,22.8
			c11.4,8.5,27.2,0.5,40-5.7c25.6-12.4,55.1-16.9,83.3-12.6c37.3,5.6,70.7,25.7,106.4,38c10.2,3.5,23.5,5.5,30-3.1
			c3.4-4.5,3.7-10.8,2.3-16.3c-3.5-14.7-16.3-25.3-28.9-33.6C2452.5,1501,2386.9,1444.5,2311.4,1447.5z"/>
		<path class="st4" d="M2521.6,1447.5c-1.5,18.9-10.9,37-25.3,49.1c-14.5,12.2-33.9,18.3-52.7,16.6"/>
		<path class="st4" d="M2445.5,1410c0,54.4-43.6,73-53,73.3"/>
		<path class="st4" d="M2384.2,1409.4c1.6,14.4-1.5,29.3-8.7,41.8c-4.3,7.4-10.6,14.4-19,16.1"/>
		<path class="st4" d="M2468,1325.7c0,0-75.5-73.5-161.2-20.9"/>
	</g>
	<path class="st5" d="M2131.9,1821.4c17.7-9.6,39.9-21,56.2-9.3c8,5.8,11.8,15.8,13.4,25.6c6.5,39.7-16.4,78.2-43.1,108.2
		c-39.7,44.6-95,80.8-154.6,78c-40.3-1.9-77.5-21.3-113.1-40.3c-40.2-21.4-84.2-47.6-95.4-91.7c-4.4-17.2-0.5-39.4,16-46.2
		c24.9-10.2,70,6.2,95.9,10c21.6,3.2,43.2,6.3,65.1,5.3C2025.7,1858.7,2084.9,1848.2,2131.9,1821.4z"/>
	<path class="st2" d="M2142.8,1962.1c-77.1-24.8-163.4-20.1-237.3,13.1c-5.3,2.4-10,5.4-14,8.9c35.4,18.8,72.2,37.9,112.2,39.8
		C2055.9,2026.4,2104.8,1998.9,2142.8,1962.1z"/>
	<g>
		<path class="st6" d="M2398.6,1632.9c-60.9,11.4-112.4,60.3-129.8,119.7c-5.1,17.6-7.5,36.3-3.4,54.2c3.7,16,12.3,30.4,21.9,43.7
			c35,48.7,91.6,89,150.9,80.1c16.2-2.4,31.7-8.4,46.9-14.8c17-7.2,34-15.2,48.7-26.3c27.4-20.8,46.1-52.8,50.6-86.9
			C2598,1701.5,2495.5,1614.8,2398.6,1632.9z"/>
		<path class="st4" d="M2375.5,1716.8c0,17.2,0,34.5,0,51.7"/>
		<path class="st4" d="M2432.6,1714.1c0,12.7,0,25.4,0,38.1"/>
	</g>
	<g>
		<path class="st6" d="M1534.5,1646.2c-60.9,11.4-112.4,60.3-129.8,119.7c-5.1,17.6-7.5,36.3-3.4,54.2c3.7,16,12.3,30.4,21.9,43.7
			c35,48.7,91.6,89,150.9,80.1c16.2-2.4,31.7-8.4,46.9-14.8c17-7.2,34-15.2,48.7-26.3c27.4-20.8,46.1-52.8,50.6-86.9
			C1733.9,1714.8,1631.4,1628.1,1534.5,1646.2z"/>
		<path class="st4" d="M1511.4,1730.1c0,17.2,0,34.5,0,51.7"/>
		<path class="st4" d="M1568.5,1727.4c0,12.7,0,25.4,0,38.1"/>
	</g>
	<path class="st4" d="M2276.9,839.7c10.4-2.3,20.5,4.1,28.9,10.5c7.3,5.5,14.4,11.3,20.6,18.1c15.7,17.2,24.4,39.8,28.4,62.7
		c4,22.9,3.7,46.3,3.4,69.6"/>
	<path class="st4" d="M2193.6,867.9c18.9,7.7,37.9,15.4,55.1,26.4c17.2,11,32.5,25.6,41.3,44c7.4,15.6,9.8,33,11.4,50.2"/>
	<path class="st4" d="M2137.4,926.7c21,3.2,42.4,6.6,61.4,16.3c18.9,9.7,35.3,26.8,38.4,47.9"/>
	<path class="st4" d="M2152.9,991.8c18.3-6.2,39.8-1.6,53.8,11.6"/>
	<path class="st4" d="M2472.8,1027.7c1.7-1.5,3.5-3,5.2-4.6c5.1-4.5,10.3-9,15.8-13c21-14.9,46.8-21.3,72.3-25.3
		c15-2.4,30.3-4.1,45.2-1.6c14.9,2.5,29.6,9.6,38.5,21.9"/>
	<path class="st4" d="M2518.6,1057.5c15.1-5.8,30.3-11.6,46.1-15.3c59.9-14,126.6,6,169,50.5"/>
	<path class="st4" d="M2559.8,1105.4c35.6-11.6,74.7-8.4,110.7,2.2c35.9,10.6,69.3,28.4,102.4,46"/>
	<path class="st4" d="M2619.8,1149.1c47.9,20.2,88.7,57.1,113.5,102.8"/>
	<path class="st1" d="M709.3,2528.1c-0.5,0-1-0.3-1.4-0.7c-38.6-60.1-28.1-145.6,23.8-194.6c20.4-19.3,45.8-32.5,70.3-45.3
		c14-7.3,28.6-14.9,42-23.5c52.4-33.7,88.6-85.8,96.9-139.6c9.4-60.6-18.1-122.2-66.7-149.9c-5.2-2.9-10.6-5.8-16.4-8.8
		c-29.8-15.6-63.5-33.2-57.4-64.8c3.1-15.7,16.1-26.7,27.2-34.6c20.5-14.6,44.3-27,67.4-38.9c53.5-27.7,104-53.9,120.2-107.5
		c15-49.8-8.4-100.7-31.1-149.9l-3.8-8.3c-32.4-70.6-35.6-123.2-9.7-160.6c28.8-41.7,79.3-47.5,132.8-53.7
		c42.5-4.9,86.4-10,118.8-34.5c47.1-35.7,53.9-95.1,61-158.1c3.9-33.9,7.9-69,18.7-100.3c22.9-65.8,81.8-120.2,153.8-142
		c66.2-20,141.4-14,211.7,17.1c17.6,7.8,34.8,17.1,51.5,26.1c22.2,12,45.1,24.3,69,33.2c48.9,18.1,95.6,16.4,128.1-4.5
		c32.8-21.1,49-58.7,64.7-95c6.4-14.8,13-30.2,20.7-44.3c47.5-87.2,149.4-139.1,247.8-126.3c98.4,12.8,183.7,89,207.3,185.4
		c0.2,0.9-0.3,1.7-1.2,1.9c-0.9,0.2-1.7-0.3-1.9-1.2c-23.3-95.1-107.5-170.4-204.6-183c-97.1-12.6-197.7,38.6-244.6,124.6
		c-7.6,14-14.2,29.2-20.6,44c-15.9,36.8-32.3,74.8-65.9,96.4c-33.4,21.5-81.1,23.2-131,4.8c-24.1-8.9-47.2-21.3-69.4-33.3
		c-16.6-9-33.8-18.2-51.3-26c-69.6-30.7-144-36.8-209.4-17c-71,21.5-129.2,75.1-151.7,140c-10.7,30.9-14.7,65.8-18.6,99.6
		c-7.2,63.6-14.1,123.7-62.3,160.3c-33.1,25.1-77.5,30.2-120.3,35.2c-52.7,6.1-102.6,11.8-130.6,52.4c-25.2,36.4-21.9,87.9,10,157.4
		l3.8,8.3c21.9,47.4,46.7,101.1,31.3,152.1c-16.6,54.9-70.1,82.6-121.8,109.4c-22.9,11.9-46.6,24.2-67,38.7
		c-10.6,7.5-23.1,18-25.9,32.6c-5.7,29.2,26.9,46.3,55.7,61.4c5.8,3.1,11.3,5.9,16.5,8.9c49.8,28.4,77.9,91.4,68.3,153.2
		c-8.4,54.6-45.2,107.6-98.4,141.8c-13.6,8.7-28.1,16.3-42.2,23.7c-24.3,12.7-49.5,25.8-69.6,44.8c-50.9,48-61.1,131.7-23.3,190.5
		c0.5,0.7,0.3,1.7-0.5,2.2C709.9,2528,709.6,2528.1,709.3,2528.1z"/>
	<path class="st1" d="M1007.8,2695.8c-0.2,0-0.5-0.1-0.7-0.2c-40-20.1-50.9-71.7-40.7-110.1c10.8-41,39.9-73.7,69.7-102.8
		c4.4-4.3,8.9-8.6,13.4-13c25.2-24.3,51.3-49.4,68.5-80.1c32.7-58.7,28.3-134.7-10.9-189.3c-5.7-7.9-12.2-15.6-18.5-23
		c-14-16.5-28.4-33.5-35-54.4c-14.8-47,12.5-88.1,41.3-131.6c21.7-32.7,44.1-66.5,47.8-103.5c4.9-49.3-22.6-90.6-51.6-134.3
		c-16.4-24.7-33.5-50.3-44.1-77.5c-32.3-82.6,0.9-184.7,75.6-232.5c28.6-18.3,62.2-29.1,94.6-39.6c47.2-15.2,91.8-29.6,123.2-65
		c26.9-30.4,37.9-70.9,48.6-110.1c9.2-33.8,18.7-68.7,38.2-97.8c54.7-81.5,173.9-93.9,263.4-64c24.8,8.3,49,19.3,72.4,29.9
		c25,11.4,50.8,23.1,77.3,31.5c35.4,11.2,102.5,24.7,154.5-11.3c45.8-31.7,69.5-79.2,94.6-129.5c28.6-57.2,58.1-116.4,123.3-149.5
		c39.3-19.9,84.7-26.2,127.9-17.8c22.7,4.4,40.2,12.1,53.6,23.5c36.9,31.4,38.1,86.5,35.8,125.1c-0.1,0.9-0.8,1.5-1.7,1.5
		c-0.9-0.1-1.6-0.8-1.5-1.7c3.6-60.4-7.4-99.3-34.7-122.5c-12.9-11-30-18.5-52.1-22.8c-42.5-8.3-87.2-2.1-125.8,17.5
		c-64.2,32.6-93.5,91.3-121.9,148.1c-24.2,48.4-49.2,98.5-95.7,130.7c-53,36.7-121.3,23.1-157.3,11.7c-26.7-8.5-52.6-20.2-77.7-31.6
		c-23.3-10.6-47.4-21.6-72.1-29.8c-88.3-29.5-205.9-17.4-259.7,62.8c-19.3,28.7-28.7,63.3-37.8,96.9
		c-10.8,39.6-21.9,80.5-49.3,111.4c-31.9,36.1-79,51.2-124.6,65.9c-32.3,10.4-65.6,21.1-93.9,39.2c-73.4,47-106.1,147.4-74.3,228.6
		c10.5,26.8,27.4,52.3,43.8,76.8c28.1,42.3,57.2,86,52.2,136.4c-3.8,37.8-26.4,71.9-48.3,104.9c-28.4,42.9-55.3,83.4-40.9,128.9
		c6.4,20.3,20.6,37,34.4,53.3c6.3,7.5,12.9,15.2,18.6,23.2c39.9,55.5,44.3,133,11,192.7c-17.4,31.2-43.6,56.4-69,80.9
		c-4.5,4.3-9,8.6-13.4,12.9c-29.5,28.9-58.2,61.1-68.8,101.4c-9.8,37.2,0.6,87.1,39.1,106.4c0.8,0.4,1.1,1.4,0.7,2.2
		C1009,2695.4,1008.4,2695.8,1007.8,2695.8z"/>
	<path class="st1" d="M3246,2318.5c0.9-0.8,1.8-1.7,2.7-2.4c-7.4-32.5-12.6-65.6-15.4-98.6c-3.3-38.4-8.3-96.4-50.2-114.5
		c-16.7-7.2-36-6.2-54.7-5.2c-23.5,1.2-45.7,2.4-62-12c-24-21.2-16.7-59.2-6.5-93.5c9.8-32.7,15.3-75.7-13.9-95
		c-15.9-10.5-35.3-8.7-54.1-6.9c-12.5,1.2-25.5,2.4-37.4,0c-36.2-7.1-56.5-44.5-60.1-76.4c-3.6-32.1,5-64.5,13.4-95.8l2.1-7.8
		c21.3-80.5,31.7-187.8-39.7-242c-17.1-13-37.7-21.3-57.5-29.3c-26.4-10.7-51.4-20.8-69.6-41c-39.6-44-26.7-108.1-14.2-170.2
		c1.7-8.4,3.3-16.6,4.8-24.7c15.6-84.5,3.7-160.3-33.7-213.5c-40.7-58-129-93.9-195.5-54.9c-0.8,0.4-1,1.4-0.6,2.2
		c0.4,0.8,1.4,1,2.2,0.6c65-38.1,151.4-2.8,191.2,54c36.9,52.5,48.6,127.5,33.2,211.1c-1.5,8.1-3.2,16.3-4.8,24.7
		c-12,59.9-25.7,127.8,15,173c18.7,20.8,45.1,31.5,70.7,41.8c19.6,8,40,16.2,56.8,28.9c70.1,53.1,59.6,159.1,38.6,238.6l-2.1,7.8
		c-8.5,31.6-17.2,64.2-13.5,97c3.7,32.9,24.9,71.8,62.7,79.1c12.4,2.4,25.6,1.2,38.3,0c19.1-1.8,37.1-3.5,52.1,6.4
		c27.5,18.2,22,59.7,12.6,91.4c-10.6,35.3-18,74.5,7.4,96.9c17.3,15.3,41.2,14,64.3,12.8c18.3-1,37.2-2,53.2,5
		c37.1,16,44,62,48.3,111.8C3233,2251.5,3238.3,2285.3,3246,2318.5z"/>
	<path class="st1" d="M841.3,1528.3c-0.9,0-1.6-0.7-1.6-1.6c-1-52.8,24.3-108.2,69.2-151.8c44.3-43.1,100.9-69.8,145.2-88.2l9.4-3.9
		c44.3-18.3,90.2-37.2,114.8-76.9c22.2-35.9,21.4-80.1,20.5-122.9c-0.3-15.3-0.6-31.2,0.1-46.4c6.6-134.7,111-257.5,243-285.6
		c53-11.3,107.5-8.6,160.3-6.1c52.1,2.5,105.9,5.1,157.9-5.7c20.8-4.3,49.9-12.4,70.5-26.3c77.1-52,146.1-81.5,199.6-85.3
		c137.8-9.8,265.7,34,342.3,117.2c0.6,0.7,0.6,1.7-0.1,2.3c-0.7,0.6-1.7,0.6-2.3-0.1c-75.9-82.4-202.8-125.8-339.7-116.1
		c-52.9,3.8-121.4,33.1-198,84.7c-21,14.2-50.6,22.4-71.7,26.8c-52.4,10.9-106.4,8.3-158.7,5.8c-52.6-2.5-106.9-5.2-159.5,6
		c-130.6,27.8-233.9,149.3-240.4,282.6c-0.7,15.1-0.4,30.9-0.1,46.2c0.9,43.2,1.8,87.9-21,124.6c-25.2,40.6-71.5,59.7-116.3,78.2
		l-9.4,3.9c-44.1,18.3-100.3,44.9-144.2,87.6c-44.3,43.1-69.2,97.5-68.3,149.5C843,1527.6,842.2,1528.3,841.3,1528.3
		C841.4,1528.3,841.3,1528.3,841.3,1528.3z"/>
	<path class="st1" d="M3214.2,2023.9C3214.2,2023.9,3214.2,2023.9,3214.2,2023.9c-0.9,0-1.6-0.7-1.6-1.6c0.3-28.7,0.6-58.3-7.3-86.4
		c-8.6-31-27-55.3-50.3-66.7c-15.9-7.8-34.9-10.3-53.3-12.7c-29-3.8-56.3-7.4-72.7-29.9c-21.7-29.8-5.9-69,8-103.7
		c1.9-4.8,3.9-9.6,5.6-14.2c16.7-43.5,19.9-89.7,9.1-129.9c-11.9-44.2-41.5-81.9-79.2-100.8c-12-6-25-10.3-37.5-14.5
		c-10.3-3.4-20.9-6.9-31.1-11.4c-33.7-14.9-60.6-40.5-73.6-70.3c-16.9-38.5-11.9-81.8-7.1-123.7c0.8-6.5,1.5-13,2.2-19.5
		c10.5-101.9-5.3-193.1-45.7-263.7c-47.8-83.5-133-137.2-217.7-137.2c-0.6,0-1.2,0-1.8,0c0,0,0,0,0,0c-0.9,0-1.6-0.7-1.6-1.6
		c0-0.9,0.7-1.6,1.6-1.6c0.6,0,1.2,0,1.8,0c85.8,0,172.2,54.3,220.5,138.8c40.7,71.2,56.7,163.1,46.1,265.7
		c-0.7,6.5-1.4,13-2.2,19.5c-4.8,41.5-9.7,84.4,6.8,122.1c12.7,29.1,39,54.1,72,68.7c10,4.4,20.5,7.9,30.8,11.3
		c12.7,4.2,25.8,8.6,38,14.7c38.5,19.3,68.7,57.8,80.8,102.9c11,40.9,7.7,87.7-9.2,131.9c-1.8,4.7-3.7,9.5-5.7,14.3
		c-13.6,33.9-29,72.2-8.4,100.6c15.6,21.4,42.3,24.9,70.5,28.6c18.6,2.4,37.9,5,54.3,13c24.1,11.8,43.1,36.8,52,68.7
		c8,28.5,7.7,58.4,7.4,87.3C3215.8,2023.2,3215.1,2023.9,3214.2,2023.9z"/>
	<g>
		<path class="st1" d="M3075.6,1548.1l-1-24.7l-12.9-39.8l-23.8-41.3l-6.6-52l-4.6-55.6l0.5-53l3.6-54.6l4.1-13.8l21.9,8.7
			l12.2,14.8l6.6,24.5l-1.5,27l4.6,27l21.9,32.1l9.7-11.2l11.2-58.7l11.2-64.3l12.8-68.9l6.6-32.1l14.3-18.9l18.9,2.3
			c0,0,10.2,19.6,10.2,23.2s-1,42.8-1,42.8l3.1,78.6v45.4l10.2,10.7l17.3-9.2l23.5-31.1l31.1-46.4l27.5-41.3l24-27l21.4-3.6l7.1,9.7
			c0,0-1,23.5,0,25c1,1.5-30.6,58.1-30.6,58.1l-37.2,57.6l-25,44.9l4.1,12.2l27.5-8.2l34.7-37.2l46.4-40.8l27.5-22.4l16.3,5.1
			l-3.6,28.1l-44.4,59.7l-37.2,43.4l-16.3,19.9v15.3l24-4.6l33.7-12.8l36.7-13.3l21.4-2l9.7,1.5v23.1l-46.4,38.6l-65.8,35.2
			l-49.5,34.7l-43.4,36.7l-47.9,28.1l-28.6,13.3l-27.3,22.5l-15.6-27.1l-38.8-25L3075.6,1548.1z"/>
		<path class="st4" d="M3145.9,1469.2c0,0,19.8-63.9-42.8-117c-1.4,1.4-29.9-28.6-29.9-61.2c-1.4,0,16.1-70.7-39.6-78.9
			c0.1,1.4-25.7,172.7,16.4,248.9c42.2,76.2,19,87.1,19,87.1"/>
		<path class="st4" d="M3108.5,1350.9c7.1-76.9,25.3-152.4,43.5-227.4c1.6-6.6,3.3-13.4,7.2-19c3.9-5.6,10.7-9.7,17.4-8.5
			c6.2,1.1,10.9,6.5,13.6,12.2c4.9,10.2,5,22,5.1,33.3c0.2,42.6,0.4,85.2,0.6,127.7c0,0-1.4,16.6,4.4,24.1c2.7,3.5,7.5,4.9,11.6,3.4
			c4.1-1.5,7.3-4.9,10.2-8.1c20.6-23.1,39-48.3,54.7-75c9.7-16.4,53.3-89.5,79.4-75.6c38.7,25.9-105.6,193.2-86.9,204.9
			c8.3,4.3,22.7-3,29.2-9.7c30-30.9,103.3-113.5,122.4-93.7c24,24.9-79,122.8-94.8,146.3c-3.6,5.3-6.6,12.7-2.6,17.6
			c4.1,5,12,3.3,18.1,1.2c23.3-8.1,98.8-43.8,109.3-23.3c17.6,34.3-124,89-162.6,125.4c-20.8,19.6-29.7,30.5-72.9,54.1
			c-27.4,14.9-56.5,24.2-73.7,50.3"/>
		<path class="st4" d="M3173,1483.7c13.7-25.3,43-41.1,71.6-38.9"/>
	</g>
	<g>
		<path class="st1" d="M975,1600l1-24.7l12.9-39.8l23.8-41.3l6.6-52l4.6-55.6l-0.5-53l-3.6-54.6l-4.1-13.8l-21.9,8.7l-12.2,14.8
			l-6.6,24.5l1.5,27l-4.6,27l-21.9,32.1l-9.7-11.2l-11.2-58.7l-11.2-64.3l-12.8-68.9l-6.6-32.1l-14.3-18.9l-18.9,2.3
			c0,0-10.2,19.6-10.2,23.2c0,3.6,1,42.8,1,42.8l-3.1,78.6v45.4l-10.2,10.7l-17.3-9.2l-23.5-31.1l-31.1-46.4l-27.5-41.3l-24-27
			l-21.4-3.6l-7.1,9.7c0,0,1,23.5,0,25c-1,1.5,30.6,58.1,30.6,58.1l37.2,57.6l25,44.9l-4.1,12.2l-27.5-8.2l-34.7-37.2l-46.4-40.8
			l-27.5-22.4l-16.3,5.1l3.6,28.1l44.4,59.7l37.2,43.4l16.3,19.9v15.3l-24-4.6l-33.7-12.8l-36.7-13.3l-21.4-2l-9.7,1.5v23.1
			l46.4,38.6l65.8,35.2l49.5,34.7l43.4,36.7l47.9,28.1l28.6,13.3l27.3,22.5l15.6-27.1l38.8-25L975,1600z"/>
		<path class="st4" d="M904.7,1521.1c0,0-19.8-63.9,42.8-117c1.4,1.4,29.9-28.6,29.9-61.2c1.4,0-16.1-70.7,39.6-78.9
			c-0.1,1.4,25.7,172.7-16.4,248.9c-42.2,76.2-19,87.1-19,87.1"/>
		<path class="st4" d="M942.1,1402.7c-7.1-76.9-25.3-152.4-43.5-227.4c-1.6-6.6-3.3-13.4-7.2-19c-3.9-5.6-10.7-9.7-17.4-8.5
			c-6.2,1.1-10.9,6.5-13.6,12.2c-4.9,10.2-5,22-5.1,33.3c-0.2,42.6-0.4,85.2-0.6,127.7c0,0,1.4,16.6-4.4,24.1
			c-2.7,3.5-7.5,4.9-11.6,3.4c-4.1-1.5-7.3-4.9-10.2-8.1c-20.6-23.1-39-48.3-54.7-75c-9.7-16.4-53.3-89.5-79.4-75.6
			c-38.7,25.9,105.6,193.2,86.9,204.9c-8.3,4.3-22.7-3-29.2-9.7c-30-30.9-103.3-113.5-122.4-93.7c-24,24.9,79,122.8,94.8,146.3
			c3.6,5.3,6.6,12.7,2.6,17.6c-4.1,5-12,3.3-18.1,1.2c-23.3-8.1-98.8-43.8-109.3-23.3c-17.6,34.3,124,89,162.6,125.4
			c20.8,19.6,29.7,30.5,72.9,54.1c27.4,14.9,56.5,24.2,73.7,50.3"/>
		<path class="st4" d="M877.6,1535.6c-13.7-25.3-43-41.1-71.6-38.9"/>
	</g>
	<path class="st7" d="M3058.3,1548.1c0,0-472,767.2-810,963c-0.7,0-68.7-29.9-68.7-29.9h-340l-81.2,15.4
		c0,0-533.6-358.2-756.7-906.3c0-4.1-108.8,29.5-114.3,72.6c0-5.9,742.7,1256.4,631.1,2333.6c-5.4-5.4,899.1,0,899.1,0
		s-61.2-990.2,727.7-2369.5C3150.8,1629.7,3118.2,1553.6,3058.3,1548.1z"/>
	<g>
		<path class="st0" d="M1575.1,3743.8c15.4,1.4,24.6,8.3,24.9,23.1c0.3,14.5-7.8,23.2-22.5,23.6c-14.7,0.4-23.2-7.9-23.7-22.4
			C1553.2,3753.2,1562.5,3746.3,1575.1,3743.8z"/>
		<path class="st0" d="M989,1746.2c14.3,1.3,23.3,8.4,23.3,23.2c0.1,14.6-8.1,23.1-22.8,23.2c-14.7,0.2-23.1-8.2-23.3-22.8
			C965.9,1755.2,974.7,1747.8,989,1746.2z"/>
		<path class="st0" d="M1130.4,1887.8c-1.8,14-9.1,22.8-24,22.5c-14.7-0.3-22.9-9-22.7-23.5c0.2-14.6,9-22.9,23.5-22.7
			C1121.9,1864.2,1129.1,1873.3,1130.4,1887.8z"/>
		<path class="st0" d="M1810.2,3743.8c15.3,1.4,24.5,8.2,24.8,23.1c0.3,14.6-7.8,23.2-22.4,23.6c-14.7,0.4-23.2-7.9-23.7-22.4
			C1788.3,3753.2,1797.6,3746.3,1810.2,3743.8z"/>
		<path class="st0" d="M2070.5,3767.8c-1.7,14.1-8.9,22.9-23.8,22.7c-14.7-0.2-23-8.8-22.9-23.3c0.1-14.6,8.8-22.9,23.3-22.9
			C2061.9,3744.5,2069.1,3753.5,2070.5,3767.8z"/>
		<path class="st0" d="M2893.1,2004.9c-1.5,14.4-9,23.1-23.6,23c-14.6-0.1-23-8.7-22.9-23.3c0.1-14.5,8.5-22.9,23.2-22.9
			C2884.6,1981.7,2891.7,1990.6,2893.1,2004.9z"/>
		<path class="st0" d="M2775.7,2121.3c-1.6,15.4-9,24.2-23.7,24c-14.6-0.2-23-8.7-22.9-23.2c0.1-14.6,8.7-22.9,23.2-23
			C2767.1,2099,2773.9,2108.4,2775.7,2121.3z"/>
		<path class="st0" d="M2305.5,3768.4c-1.8,13.9-9.2,22.6-24,22.2c-14.7-0.4-22.8-9.1-22.5-23.6c0.3-14.6,9.1-22.8,23.7-22.5
			C2297.3,3744.7,2304.4,3753.7,2305.5,3768.4z"/>
		<path class="st0" d="M1222.3,2263.1c-13.7-2.3-22.1-10.4-21.1-24.9c1-14.5,10-22.4,24.6-21.5c14.6,0.9,22.3,10,21.5,24.5
			C1246.5,2256,1237.1,2262.7,1222.3,2263.1z"/>
		<path class="st0" d="M2658.2,2240c-2.2,14.9-9.7,23.4-24.5,22.8c-14.7-0.6-22.7-9.5-22.2-23.9c0.5-14.5,9.4-22.5,24-22.1
			C2650.4,2217.2,2656.8,2226.7,2658.2,2240z"/>
		<path class="st0" d="M1693.6,3861.6c14.5,1.1,23.5,8,23.8,22.9c0.3,14.7-7.9,23.3-22.5,23.7c-14.6,0.4-23.2-8-23.7-22.5
			C1670.9,3870.9,1679.6,3863.4,1693.6,3861.6z"/>
		<path class="st0" d="M1342.7,2380.7c-14.7-1-23.7-8.2-24-22.9c-0.3-14.6,8-23.3,22.5-23.6c14.5-0.3,23.2,7.8,23.6,22.5
			C1365.3,2371.5,1356.7,2378.9,1342.7,2380.7z"/>
		<path class="st0" d="M2517.9,2333.7c13.9,2,22.7,9.4,22.2,24.1c-0.4,14.6-9,22.8-23.6,22.5c-14.7-0.3-22.8-9.1-22.5-23.6
			C2494.2,2342,2503.4,2334.9,2517.9,2333.7z"/>
		<path class="st0" d="M2752.1,2333.7c14,1.6,23,8.6,23,23.5c0,14.7-8.2,23-22.9,23.1c-14.7,0.1-23-8.4-23.2-22.9
			C2728.8,2342.6,2737.8,2335.4,2752.1,2333.7z"/>
		<path class="st0" d="M1930.1,3861.6c14,1.7,22.7,9.1,22.4,23.9c-0.3,14.7-9,22.9-23.5,22.7c-14.6-0.2-22.9-9-22.7-23.5
			C1906.5,3869.9,1915.5,3862.7,1930.1,3861.6z"/>
		<path class="st0" d="M1483,2474.2c-1.8,15.4-9.3,24.1-24,23.8c-14.6-0.3-22.9-9-22.7-23.5c0.2-14.5,8.8-22.7,23.5-22.6
			C1474.7,2451.9,1481.2,2461.3,1483,2474.2z"/>
		<path class="st0" d="M2163.7,3861.6c14.5,1.1,23.5,8,23.8,22.9c0.3,14.7-7.9,23.3-22.5,23.7c-14.6,0.4-23.2-8-23.7-22.5
			C2140.9,3870.9,2149.6,3863.4,2163.7,3861.6z"/>
		<path class="st0" d="M2423,2473.8c-1,14.7-8.1,23.8-22.8,24.1c-14.6,0.4-23.3-7.9-23.7-22.4c-0.4-14.5,7.7-23.2,22.4-23.7
			C2413.7,2451.3,2421.1,2459.9,2423,2473.8z"/>
		<path class="st0" d="M2658.2,2474.4c-1.9,15.3-9.5,23.9-24.2,23.5c-14.6-0.4-22.9-9.2-22.5-23.7c0.4-14.5,9-22.7,23.7-22.5
			C2650.1,2452,2656.6,2461.4,2658.2,2474.4z"/>
		<path class="st0" d="M1342.3,2568.7c13.9,1.8,22.8,8.9,22.6,23.8c-0.2,14.7-8.7,23-23.3,22.8c-14.6-0.1-22.9-8.8-22.9-23.3
			C1318.8,2577.3,1327.8,2570.2,1342.3,2568.7z"/>
		<path class="st0" d="M1600.6,2591.8c-1.9,15.1-9.3,23.9-24.1,23.6c-14.6-0.3-22.9-9-22.7-23.5c0.2-14.6,9-22.8,23.5-22.7
			C1592.2,2569.3,1598.8,2578.8,1600.6,2591.8z"/>
		<path class="st0" d="M1812.1,2616c-15.1-2.1-23.8-9.7-23.3-24.4c0.5-14.6,9.3-22.8,23.8-22.4c14.5,0.4,22.6,9.1,22.4,23.8
			C1834.7,2608,1825.1,2614.3,1812.1,2616z"/>
		<path class="st0" d="M2047.3,2615.9c-14.4-1.4-23.3-8.6-23.4-23.3c-0.1-14.6,8.3-23.2,22.9-23.3c14.6-0.2,23.1,8.3,23.3,22.9
			C2070.3,2606.9,2061.4,2614.2,2047.3,2615.9z"/>
		<path class="st0" d="M2281.9,2615.9c-14.3-1.6-23.1-9-23-23.7c0.1-14.6,8.7-23,23.2-23c14.5,0.1,22.9,8.5,22.9,23.2
			C2305,2607.3,2296.1,2614.4,2281.9,2615.9z"/>
		<path class="st0" d="M2518.1,2568.7c13.8,2.1,22.6,9.5,22.1,24.3c-0.5,14.6-9.2,22.8-23.8,22.4c-14.6-0.4-22.8-9.2-22.4-23.7
			C2494.3,2576.9,2503.5,2569.9,2518.1,2568.7z"/>
		<path class="st0" d="M1460.7,2733.3c-14.8-0.8-24-7.8-24.5-22.5c-0.5-14.5,7.5-23.4,22.2-23.9c14.6-0.5,23.3,7.4,23.9,22.1
			C1483,2723.7,1474.5,2731.3,1460.7,2733.3z"/>
		<path class="st0" d="M1694.3,2733.3c-14.4-1.5-23.1-8.9-23-23.6c0.2-14.5,8.6-23,23.2-22.9c14.7,0.1,22.9,8.5,22.9,23.1
			C1717.4,2724.8,1708.6,2731.9,1694.3,2733.3z"/>
		<path class="st0" d="M1931,2733.4c-15.7-1.4-24.6-8.6-24.7-23.3c-0.1-14.5,8.2-23.1,22.9-23.2c14.6-0.1,23,8.1,23.3,22.8
			C1952.8,2724.6,1943.6,2731.4,1931,2733.4z"/>
		<path class="st0" d="M2164.4,2733.3c-14.4-1.5-23.1-8.9-23-23.6c0.2-14.5,8.6-23,23.2-22.9c14.7,0.1,22.9,8.5,22.9,23.1
			C2187.5,2724.8,2178.6,2731.9,2164.4,2733.3z"/>
		<path class="st0" d="M2398.8,2733.3c-14.1-1.7-22.8-9.4-22.4-24c0.4-14.5,9-22.8,23.7-22.4c14.7,0.4,22.7,8.9,22.5,23.6
			C2422.3,2725.2,2413.3,2732.2,2398.8,2733.3z"/>
		<path class="st0" d="M2399.3,3908.8c-14.8-2.3-23.5-9.9-22.9-24.5c0.6-14.5,9.2-22.6,23.8-22.2c14.8,0.4,22,9,21.8,23.8
			C2421.8,3901.3,2412.4,3907.1,2399.3,3908.8z"/>
		<path class="st0" d="M1600.4,2827.7c-1.7,14.1-8.9,22.9-23.8,22.7c-14.7-0.2-23-8.8-22.9-23.3c0.1-14.6,8.8-22.9,23.3-22.9
			C1591.9,2804.3,1599,2813.3,1600.4,2827.7z"/>
		<path class="st0" d="M1835.4,2827.7c-1.6,14.1-8.9,22.9-23.7,22.6c-14.7-0.2-23-8.8-22.8-23.3c0.1-14.6,8.8-22.9,23.3-22.9
			C1826.9,2804.3,1834.1,2813.3,1835.4,2827.7z"/>
		<path class="st0" d="M2045.9,2803.8c14.4,1,23.7,7.9,24.1,22.6c0.5,14.5-7.5,23.4-22.1,23.9c-14.7,0.6-23.3-7.6-24-22.1
			C2023.2,2813.5,2031.9,2806,2045.9,2803.8z"/>
		<path class="st0" d="M2305.6,2827.7c-2.2,14.8-9.7,23.3-24.5,22.7c-14.7-0.6-22.7-9.5-22.2-24c0.5-14.6,9.5-22.6,24-22.2
			C2297.7,2804.7,2304.3,2814.2,2305.6,2827.7z"/>
		<path class="st0" d="M2516.3,2803.8c14.3,1.2,23.5,8.1,23.8,22.9c0.3,14.5-7.7,23.3-22.4,23.7c-14.7,0.4-23.3-7.8-23.8-22.3
			C2493.4,2813.3,2502.2,2805.8,2516.3,2803.8z"/>
		<path class="st0" d="M1459.4,2968.5c-14.2-1.5-23.2-8.8-23.2-23.5c0-14.5,8.3-23.1,23-23.1c14.7-0.1,23,8.2,23.2,22.9
			C1482.6,2959.7,1473.6,2966.7,1459.4,2968.5z"/>
		<path class="st0" d="M1717.9,2943.8c-1,14.7-8.1,23.8-22.8,24.1c-14.6,0.4-23.3-7.9-23.8-22.4c-0.4-14.5,7.7-23.2,22.4-23.7
			C1708.5,2921.4,1716,2930,1717.9,2943.8z"/>
		<path class="st0" d="M1928.5,2921.4c14.6,1,23.6,7.9,24,22.8c0.3,14.7-7.8,23.3-22.4,23.7c-14.6,0.4-23.3-7.9-23.8-22.4
			C1905.8,2930.9,1914.5,2923.3,1928.5,2921.4z"/>
		<path class="st0" d="M2188,2945.4c-1.6,14.3-9.2,22.9-23.9,22.6c-14.6-0.3-22.9-9-22.7-23.5c0.2-14.5,8.8-22.8,23.5-22.6
			C2179.7,2922,2186.7,2931,2188,2945.4z"/>
		<path class="st0" d="M2423,2945.4c-1.6,14.3-9.2,22.9-23.9,22.6c-14.6-0.3-22.9-9-22.7-23.5c0.2-14.5,8.8-22.8,23.5-22.6
			C2414.8,2922,2421.8,2931,2423,2945.4z"/>
		<path class="st0" d="M1600.4,3062.3c-1.5,14.3-8.7,23.2-23.4,23.2c-14.6,0-23.1-8.4-23.2-23c-0.1-14.6,8.4-23,23-23.2
			C1591.5,3039.1,1598.8,3048.1,1600.4,3062.3z"/>
		<path class="st0" d="M1835.4,3062.3c-1.4,14.4-8.6,23.2-23.4,23.2c-14.6,0-23.1-8.4-23.2-23c-0.1-14.6,8.4-23.1,23-23.2
			C1826.5,3039.1,1833.9,3048,1835.4,3062.3z"/>
		<path class="st0" d="M2070.5,3063.3c-2,14-9.5,22.7-24.2,22.2c-14.6-0.5-22.8-9.3-22.4-23.8c0.4-14.6,9.3-22.8,23.8-22.4
			C2062.4,3039.6,2069.4,3048.8,2070.5,3063.3z"/>
		<path class="st0" d="M2305.5,3062.8c-1.6,14.2-9,22.9-23.7,22.7c-14.6-0.2-23-8.8-22.8-23.3c0.1-14.6,8.8-22.9,23.3-22.9
			C2297,3039.4,2304.2,3048.3,2305.5,3062.8z"/>
		<path class="st0" d="M2515.9,3085.9c-14-2.1-22.6-9.8-21.9-24.4c0.6-14.6,9.5-22.7,24-22.2c14.5,0.6,22.7,9.4,22.2,24
			C2539.6,3078.1,2530.4,3085,2515.9,3085.9z"/>
		<path class="st0" d="M1717.9,3180.1c-1.6,14.2-8.8,23-23.6,22.8c-14.7-0.2-23-8.7-22.9-23.2c0.1-14.5,8.5-22.9,23.2-22.9
			C1709.4,3156.9,1716.5,3165.8,1717.9,3180.1z"/>
		<path class="st0" d="M1929.7,3203.4c-14.5-1.3-23.3-8.7-23.3-23.4c0-14.5,8.3-23.1,23-23.1c14.6-0.1,23,8.2,23.1,22.9
			C1952.6,3194.7,1943.8,3201.8,1929.7,3203.4z"/>
		<path class="st0" d="M2164,3156.3c15.2,1.8,23.8,9.2,23.5,24c-0.3,14.7-8.8,22.8-23.4,22.6c-14.7-0.2-22.8-8.9-22.7-23.4
			C2141.5,3164.7,2150.9,3158,2164,3156.3z"/>
		<path class="st0" d="M2397.4,3156.4c15.9,1.2,24.9,8.1,25.2,23c0.3,14.6-7.8,23.2-22.4,23.6c-14.7,0.4-23.2-7.9-23.7-22.4
			C2375.9,3165.7,2385.1,3158.7,2397.4,3156.4z"/>
		<path class="st0" d="M1578.2,3273.9c13.7,2.2,22.5,9.7,21.8,24.5c-0.7,14.6-9.4,22.6-24,22.1c-14.7-0.5-22.7-9.5-22.2-23.9
			C1554.2,3281.8,1563.5,3274.9,1578.2,3273.9z"/>
		<path class="st0" d="M1835.4,3298.5c-1.9,13.9-9.3,22.5-24.1,22c-14.7-0.5-22.8-9.3-22.4-23.7c0.4-14.6,9.3-22.8,23.8-22.4
			C1827.3,3274.7,1834.4,3283.8,1835.4,3298.5z"/>
		<path class="st0" d="M2070.7,3296.6c-1.8,15.2-9,24-23.8,23.9c-14.7-0.2-23-8.7-23-23.2c0.1-14.6,8.7-22.9,23.2-23
			C2062,3274.2,2068.7,3283.7,2070.7,3296.6z"/>
		<path class="st0" d="M2280.8,3320.9c-14-2-22.5-9.7-21.9-24.4c0.6-14.6,9.5-22.7,24-22.2c14.5,0.6,22.6,9.3,22.1,24
			C2304.5,3313.2,2295.4,3320,2280.8,3320.9z"/>
		<path class="st0" d="M1718,3414.3c-1.8,15.4-9.3,24.1-24,23.8c-14.6-0.3-22.9-9-22.7-23.5c0.2-14.5,8.8-22.7,23.5-22.6
			C1709.8,3392,1716.3,3401.4,1718,3414.3z"/>
		<path class="st0" d="M1929.5,3438.6c-14.2-1.5-23.2-8.8-23.2-23.5c0-14.5,8.3-23.1,23-23.1c14.7-0.1,23,8.2,23.2,22.9
			C1952.7,3429.7,1943.7,3436.8,1929.5,3438.6z"/>
		<path class="st0" d="M2188,3415.5c-1.6,14.3-9.2,22.9-23.9,22.6c-14.6-0.3-22.9-9-22.7-23.5c0.2-14.5,8.8-22.8,23.5-22.6
			C2179.7,3392.1,2186.7,3401.1,2188,3415.5z"/>
		<path class="st0" d="M2400.6,3438.5c-14.5-1-23.7-7.9-24.2-22.6c-0.5-14.5,7.5-23.4,22.2-23.9c14.6-0.5,23.3,7.4,24,22.1
			C2423.2,3428.9,2414.6,3436.3,2400.6,3438.5z"/>
		<path class="st0" d="M1600.4,3532.7c-1.7,14.2-8.9,23.1-23.7,22.9c-14.6-0.2-23-8.7-23-23.2c0.1-14.6,8.7-23,23.2-23
			C1591.8,3509.4,1599,3518.4,1600.4,3532.7z"/>
		<path class="st0" d="M1835.4,3533.1c-1.7,14.1-9.1,22.8-23.9,22.5c-14.6-0.3-22.9-9-22.7-23.5c0.2-14.6,9-22.9,23.5-22.7
			C1827,3509.5,1834.2,3518.5,1835.4,3533.1z"/>
		<path class="st0" d="M2046.4,3508.9c14.3,1.3,23.4,8.2,23.7,23c0.3,14.6-7.9,23.3-22.5,23.6c-14.6,0.4-23.2-7.9-23.7-22.5
			C2023.4,3518.3,2032.2,3510.9,2046.4,3508.9z"/>
		<path class="st0" d="M2280.9,3508.8c15,1.6,24.1,8.6,24.1,23.5c0.1,14.7-8.2,23.1-22.8,23.3c-14.6,0.2-23.1-8.3-23.4-22.8
			C2258.6,3517.9,2267.9,3511,2280.9,3508.8z"/>
		<path class="st0" d="M1717.9,3647.3c-1,16.1-7.8,25.2-22.6,25.7c-14.7,0.5-23.4-7.6-24-22.1c-0.6-14.5,7.5-23.2,22.2-23.9
			C1708.5,3626.2,1715.4,3635.4,1717.9,3647.3z"/>
		<path class="st0" d="M1928.5,3626.6c14.6,1,23.7,7.9,24,22.8c0.3,14.6-7.7,23.3-22.3,23.7c-14.7,0.4-23.3-7.8-23.8-22.3
			C1905.8,3636,1914.5,3628.4,1928.5,3626.6z"/>
		<path class="st0" d="M2188,3650.6c-1.7,14.1-9.1,22.8-23.9,22.4c-14.7-0.3-22.9-9-22.7-23.4c0.2-14.5,8.8-22.8,23.5-22.6
			C2179.7,3627.2,2186.7,3636.1,2188,3650.6z"/>
		<path class="st0" d="M2399.8,3626.5c14.2,1.6,23,8.8,22.8,23.6c-0.2,14.7-8.5,22.9-23.2,22.9c-14.7-0.1-23-8.6-23-23.1
			C2376.4,3635.2,2385.3,3627.9,2399.8,3626.5z"/>
		<path class="st0" d="M2634.2,2733.2c-13.1-0.7-22.2-7.7-22.7-22.4c-0.5-14.5,7.4-23.3,22-24c14.5-0.6,24,7.1,23.8,21.8
			C2657.1,2721.8,2651.1,2732.4,2634.2,2733.2z"/>
		<path class="st0" d="M2985.3,1910.6c-14-2.4-22.3-10.5-21.3-25.1c1.1-14.5,10.9-24.1,24.6-20.7c8.3,2.1,20.2,13.3,20.1,20.4
			C3008.8,1896.8,3003,1911,2985.3,1910.6z"/>
		<path class="st0" d="M1693.6,2498.4c-13.9-2-24.4-9.9-21.6-23.9c1.7-8.5,12.3-15.2,18.9-22.7c8.9,7.9,22.8,14.4,25.5,24.1
			C1720.1,2489.3,1707.9,2497.1,1693.6,2498.4z"/>
		<path class="st0" d="M1230.5,2029c-20.3-2.3-29.2-9.5-29.3-24.2c-0.1-13.6,8.7-25.4,20.8-22c10.1,2.9,19.8,15.6,23.9,26.2
			C1247.6,2013.6,1234.7,2023.8,1230.5,2029z"/>
		<path class="st0" d="M1561.1,2340c12.6,11.1,23.6,20.8,35.1,30.8c-12.6,12.7-25,13.8-36.3,2.1
			C1550.1,2362.8,1551.4,2351.7,1561.1,2340z"/>
		<path class="st0" d="M1358.5,2138.8c-13.9,9.9-25.3,9.3-34.5-1.8c-8.5-10.2-7.9-21,3.3-33.1
			C1337.8,2115.6,1347.4,2126.4,1358.5,2138.8z"/>
		<path class="st0" d="M1553.9,3997.1c15.3-24.2,31.3-24.1,45.6,0C1584.2,3997.1,1570,3997.1,1553.9,3997.1z"/>
		<path class="st0" d="M1832.6,3997.4c-14,0-27.9,0-41.9,0c-0.9-2-1.7-4-2.6-6.1c8.8-4,17.6-11,26.4-11c7,0,14,8.6,21,13.4
			C1834.5,3994.9,1833.6,3996.1,1832.6,3997.4z"/>
		<path class="st0" d="M2068,3997.7c-14,0-28.1,0-42.1,0c-0.9-1.7-1.7-3.3-2.6-5c7.4-4.5,14.9-12.4,22.4-12.5
			c8.4-0.1,16.8,7,25.2,11C2069.9,3993.3,2068.9,3995.5,2068,3997.7z"/>
		<path class="st0" d="M2302.6,3998.5c-14,0-27.9,0-41.9,0c-0.9-2.1-1.9-4.1-2.8-6.2c8-4.4,16.1-12.2,24.1-12.1
			c8.1,0.1,16.2,7.9,24.3,12.3C2305.1,3994.5,2303.9,3996.5,2302.6,3998.5z"/>
		<path class="st0" d="M1441.6,2227.9c9.6,10.2,19.2,20.4,28.9,30.6c-0.2,1.5-0.4,3-0.6,4.5c-8.5-1.7-19.4-0.8-24.8-5.8
			c-6.2-5.7-7.5-16.7-10.9-25.4C1436.6,2230.4,1439.1,2229.2,1441.6,2227.9z"/>
		<path class="st0" d="M3006.9,1638.6c5.5,26.5,0,34.1-23.2,35.8C2991.1,1662.9,2998,1652.4,3006.9,1638.6z"/>
		<path class="st0" d="M1475.4,3159c2.5,11.1,5,22.2,7.6,33.4c-2.8,0.7-5.6,1.3-8.4,2c-2.6-11-5.3-21.9-7.9-32.9
			C1469.6,3160.6,1472.5,3159.8,1475.4,3159z"/>
	</g>
	<path class="st2" d="M2016.7,2592.8c0,0,50,165.9,216,100.7c12.1-5.9,110.2-51.7,39.3-196.8c1.2-0.8-92.4-15.4-92.4-15.4
		S2168,2588.7,2016.7,2592.8z"/>
	<path class="st2" d="M2013.7,2592.8c0,0-50,165.9-216,100.7c-12.1-5.9-110.2-51.7-39.3-196.8c-1.2-0.8,92.4-15.4,92.4-15.4
		S1862.4,2588.7,2013.7,2592.8z"/>
	<path class="st2" d="M2079.5,2162.2c0,0-21,261.9,100.1,319.1c-11.4,31.3-12.2,111.5-182.3,111.5c-36.7,0-126.5,0-157.8-111.5
		c2.7,2.7,129.2-54.4,110.2-315.7C1951,2165.5,2079.5,2162.2,2079.5,2162.2z"/>
	<path class="st0" d="M2078.2,2196.9c0,0-103.4,35.2-128.2,65.2c0.1-1.5-0.3-96.6-0.3-96.6l129.8-3.4L2078.2,2196.9z"/>
	<path class="st7" d="M1896.2,209.9h68.9c0,0,36.2,75.5,11.7,93.4c-5.3,3.5-17.5,9.1-36.5,0c-8.4-3.5-38.2-5.8-21.9,64.2
		c0,1.2-38.5,0-38.5,0s-51.4-53.2-12.8-78.5c39.3-18,41.2-29.6,41.2-29.6S1918.5,241.4,1896.2,209.9z"/>
	<path class="st8" d="M2981.9,3538l72.1,37.2c0,0-2.9,98.6-38.3,104.1c-7.4,0.8-23.3,0.1-38.2-19.7c-6.9-8.2-36.8-26.8-57.6,55.4
		c-0.6,1.2-40.3-20.8-40.3-20.8s-25-83.4,29-89.2c50.9,2.4,59.2-8.7,59.2-8.7S2988.2,3583.1,2981.9,3538z"/>
	<path class="st7" d="M308.3,1323.6l-74.5,38.5c0,0,3,101.9,39.6,107.6c7.6,0.8,24.1,0.1,39.5-20.4c7.2-8.5,38.1-27.7,59.6,57.3
		c0.7,1.3,41.7-21.5,41.7-21.5s25.9-86.3-30-92.2c-52.6,2.5-61.2-9-61.2-9S301.8,1370.2,308.3,1323.6z"/>
	<path class="st9" d="M897.6,465.9l-46.4,33.3c0,0,12.1,68.4,37.3,68.6c5.2-0.2,16.2-2.3,24.6-17.6c4-6.4,22.9-22.4,45.8,32.7
		c0.6,0.8,26-18.6,26-18.6s8.9-60.7-29.3-59.2c-35.2,6.9-42.1-0.1-42.1-0.1S897.8,497.9,897.6,465.9z"/>
	<path class="st9" d="M582.3,2773.9l-46.4,33.3c0,0,12.1,68.4,37.3,68.6c5.2-0.2,16.2-2.3,24.6-17.6c4-6.4,22.9-22.4,45.8,32.7
		c0.6,0.8,26-18.6,26-18.6s8.9-60.7-29.3-59.2c-35.2,6.9-42.1-0.1-42.1-0.1S582.5,2805.9,582.3,2773.9z"/>
	<path class="st7" d="M3586.5,590.4l56.8-6.1c0,0,23.2-65.5,1.3-78.1c-4.7-2.4-15.3-6-30.1,3.2c-6.6,3.6-31,8.2-23.7-51
		c-0.1-1-31.8,3.4-31.8,3.4s-37.6,48.4-3.6,65.9c34,11.3,36.6,20.8,36.6,20.8S3602.1,562.4,3586.5,590.4z"/>
	<path class="st8" d="M980.8,3390.5l-22,70.7c0,0-89,13-99.5-17.9c-1.9-6.5-3.8-20.9,11.7-37.4c6.3-7.5,18.2-37.3-58.9-43
		c-1.2-0.4,12.3-39.5,12.3-39.5s71-35.7,84.7,12c5.9,46.1,17.2,51.8,17.2,51.8S941.4,3403.3,980.8,3390.5z"/>
	<path class="st7" d="M3198.7,2982.1l51.8-5.6c0,0,21.1-59.7,1.2-71.2c-4.2-2.2-13.9-5.5-27.5,3c-6.1,3.3-28.3,7.5-21.6-46.5
		c-0.1-0.9-29,3.1-29,3.1s-34.3,44.2-3.3,60.1c31,10.3,33.4,19,33.4,19S3212.9,2956.6,3198.7,2982.1z"/>
</g>
</svg>
